<svg xmlns="http://www.w3.org/2000/svg" width="959.925" height="701" viewBox="0 0 959.925 701">
  <path id="Path_230" data-name="Path 230" d="M763.417,681.067l64.276,9.165L825.1,700.9h11.687l28.026-116.7L871.3,700.9H882.88l-2.164-39.348,29.433-.632,3.03,39.98h5.735l-3.03-40.059,44.041-.869V651.6l-36.25.711-2.813-14.143,39.064.869v-4.188L920,633.976l-5.41-27.417L938.175,587.6l21.642,10.035v-5.057l-17.746-8.217,17.746-14.3v-6.242l-46.422,37.452c-2.489-10.351-8.657-36.741-11.254-47.882l57.784,7.19V552.04l-28.784-3.634,6.817-31.368c7.683,1.185,15.041,2.291,21.967,3.319v-8.612l-16.448-2.449,16.448-15.249V480.375l-29,27.022-37.549-5.689,16.015-82.015,50.425,6.637V412.109l-5.3-.711,5.3-26.469V327.249l-5.843,29.235L900.3,347c2.705-10.351,9.847-37.768,12.552-48.2l46.963,6.479V296.75l-30.3-4.188,23.914-95.052,6.384.869v-14.3l-15.69-2.133,4.22-21.412,11.47-1.738v-4.267l-10.6,1.58,9.306-47.25,1.3.158V3.456l-3.463,17.462L920.428,22.5,918.805-.021H913.07L914.8,22.814l-30.515,1.343L882.88-.021H871.3l1.406,24.731-42.31,1.9L836.783-.021H825.1l-6.168,25.837-63.843-12.4L758.439-.021H738.961l-6.493,25.758-43.933,5.452L683.125-.021H671.547l5.519,32.553-42.959,5.294-18.4-27.417c10.929-2.291,29.325-6.242,49.235-10.43H623.718L610.625,2.744,608.677-.021H587.252l4.436,6.637c-6.709,1.343-15.69,3.161-24.564,4.978C565.718,8.749,563.771,4.562,561.5-.1h-6.06l6.168,12.8c-10.713,2.133-20.235,4.109-24.022,4.9l-27.7-6.321,1.84-11.3h-5.843l-1.515,10.035-35.385-7.98.974-2.054H457.725l-4.653,9.244-30.3-9.244h-10.6L402.755,17.6,359.363,6.616q2.759-3.319,5.194-6.637H351.139a183.609,183.609,0,0,1-21.1,22.835L324.844-.021H313.158L314.564,6.3,285.673,18.863,270.415-.021h-6.709l35.817,44.326c-.866.4-1.731.869-2.489,1.264-11.47,5.452-26.4,9.481-43.5,12.484L259.27-.021h-5.735l-5.843,59.1c-6.276,1.027-12.769,1.817-19.478,2.607L221.937-.021H210.359l2.056,20.859-69.146-6.163-.433-14.7H131.258l.433,13.748L115.784,12.3,98.687-.021H90.463l16.015,11.457L48.261,6.3,49.343-.021H43.5l-.974,5.768L19.369,3.693l.757-3.714H.649L0,3.456V109.016l49.776,6.637,8.549,30.025L0,154.528v4.267l17.422-2.686,5.627,31.131L0,184.078v14.3l25.321,3.477L6.06,297.382,0,296.592v8.533l4.328.632L0,327.249v57.679l15.69-77.59L69.9,314.765,55.511,419.378,0,412.109v14.222l50.967,6.637L0,480.375v13.59l50.534-47.091-13.851,70.4L0,511.743v8.612c14.825,2.212,27.269,4.109,35.06,5.294l-5.843,30.025L0,552.04v8.533l3.463.474L0,563.734v6.242l10.172-8.217,17.422,2.212L20.127,601.9,0,592.573v4.978l19.261,8.928-5.627,28.6L0,634.766v4.188l12.769.316-2.381,12.01L0,651.517v8.375l8.765-.158L.649,700.821H20.019l7.9-40.454L49.884,662.5l-6.493,38.321h5.843l4.437-26.232,36.791,26.232h8.224L54.646,669.295l1.082-6.242,74.556,7.269.974,30.5h11.578l-.974-29.393,66.224,6.479,2.272,22.914h11.578l-1.19-11.773,34.411-4.267L253.534,700.9h5.735l.433-4.82,3.9,4.82h6.709l-9.847-12.247.433-4.583,47.071-5.847,5.194,22.677h11.687l-16.231-71.111,82.023,4.583c-8.981,20.069-22.183,44.721-39.5,66.529h13.418a288.806,288.806,0,0,0,18.937-28.444l38.09,10.667L412.061,700.9h10.6l-3.787-1.185,19.153-35.793,35.06,6.005-15.366,30.894h12.228l29.216-58.627,15.907-1.422-9.2,60.128h5.843l3.679-24.02,26.078-5.215L555.547,700.9h6.06c-5.41-11.141-12.12-25.126-14.608-30.341l17.53-3.477L587.252,700.9h21.425l-9.739-14.538,76.4-17.3-4.22,21.807-47.4,9.956h41.228c2.164-.474,4.22-.869,6.384-1.343l.216,1.343h11.578l-.649-3.714c23.481-4.978,46.638-9.877,60.489-12.879l-4.22,16.593h19.478Zm-10.388-36.346-60.164-6.005,6.06-31.052,61.463,7.664ZM624.368,589.887l4.112-17.067,63.952,8.77-3.246,16.356Zm63.194,16.356-2.6,13.274-42.31-4.425,4.22-13.827Zm-213.5-16.593-28.351-.553,4.328-17.857,24.023,8.454a24.5,24.5,0,0,0-.541,4.9A15.883,15.883,0,0,0,474.065,589.65Zm8.765,14.222a34.989,34.989,0,0,0,5.086,3.793l-21.642,20.78-20.452-25.363Zm-1.515-37.136-54.646-19.2,59.407-15.882,8.981,26.153A40.911,40.911,0,0,0,481.315,566.736ZM102.258,522.252l7.034-11.536,87.433-15.249L184.28,527.309Zm79.209,13.353-5.843,21.887-21.317-3.951,1.515-19.516ZM59.732,71.959c19.369,1.027,41.985,1.975,65.575,2.212l-.216,4.188L56.918,93.767ZM36.142,62l6.493-26.627,62.653,5.768c-.649,4.978-2.381,17.462-3.246,24.02C76.937,64.453,54,63.268,36.142,62Zm148.571,56.1,7.466,48.435c-17.1,1.422-68.5,5.768-86.784,7.348l8.008-50.805Zm-59.948-35.24-1.84,31.131-14.5,1.027L95.008,113.2l-3.9-22.756Zm67.955,87.862,2.705,17.462-93.709,8.375,2.922-18.41Zm394.748-3.4-10.6,27.417-43.716,12.326a359.858,359.858,0,0,1-14.284-33.58Zm-60.056-26.469,33.545-3,3.679,17.383-34.519,3.081ZM694.163,319.19l-40.578-6.953,20.235-46.222,34.843,4.741C706.174,279.289,700.006,299.911,694.163,319.19ZM714.4,271.466l42.851,5.847L701.2,315.555Zm-382.736,9.639,66.332-4.583,7.25,21.017-79.426,1.738Zm0-36.583,60.706,15.487,2.813,8.217-58.541,4.03Zm301.8,67.635-10.821,24.731-47.287-13.669,12.661-23.151ZM590.065,296.2l10.929-20.069c16.231,6.8,32.03,12.8,41.119,16.119l-6.925,15.882Zm-30.948,34.054L536.935,316.5l26.728-27.654,13.959,7.427Zm-2.272,4.109-1.082,1.975-55.836,3.477L471.9,312.553l27.81-13.669ZM494.3,341.471,447.121,361.3,436.3,330.094,467.139,315C472.225,319.98,488.673,335.941,494.3,341.471Zm-25.97-32.237c-2.381-2.212-6.925-6.4-10.172-9.4l23.265-12.247,13.634,8.454Zm-4.761,2.37-28.784,14.143-4-11.457,22.724-11.931Zm-31.056,64.632-50.75-10.983,38.09-25.521Zm-57.243-12.4L309.8,349.61l14.716-46.143,82.239-1.738,11.578,33.422Zm-71.2-89.284L295.087,219l25.646-2.765L330.9,272.651ZM303.527,283l22.075-1.5L315,314.765l-21.858-5.136ZM313.7,318.874l-9.414,29.551-24.131-5.215,11.47-29.472Zm-6.276,39.032-31.164,61.946L253.1,412.82l23.914-61.551Zm5.519,1.185,29.974,6.479L330.038,393.7c-8.549-1.9-24.455-5.531-30.948-7.032Zm26.187,41.244c5.843,1.5,16.015,4.109,28.026,7.19L348.218,439.21,322.464,437Zm1.731-4.03,12.985-28.366,44.474,9.639-10.713,30.657Zm62.978-17.462,31.814,6.953,13.2,38.163-55.836-14.3Zm44.69-13.274,24.564-10.351L485.1,386.509l-31.381-5.847Zm29.758-12.563,21.209-8.928,54-3.4-29,53.017L491.7,387.615Zm71.418,17.3,25.862,6.321-9.306,25.047-30.515-5.689Zm2.056-3.951,21.425-39.19L620.8,340.918l-16.772,38.163Zm71.094,15.8,48.261,6.321-40.47,49.3-24.888-16.514Zm5.951-13.432,23.049-52.543,41.12,7.111c-4.112,13.827-7.9,26.311-9.631,32.316L647.416,371.18ZM697.95,326.38l17.205,15.328-25,10.825Zm-52.265-42.193c-19.153-7.111-62.653-23.862-82.672-36.425a31.076,31.076,0,0,1-2.813-1.975l46.314-29,51.941,38.321Zm-69.8-59.259-15.149-21.175L578.6,198.7l19.586,12.168Zm-4.545,2.844L553.274,239.15c-6.709-7.506-12.877-17.7-18.179-28.049l20.235-5.689Zm-15.8,26.39c8.873,5.61,21.858,11.852,35.384,17.7l-11.037,20.306L526.547,263.96,551.218,251A50.042,50.042,0,0,0,555.547,254.163Zm3.463,32.158L532.5,313.738l-46.205-28.6,35.276-18.568Zm-70.336-12.8-10.28-24.968,25.537-8.928,10.713,20.306Zm-12.011-29.077-8.224-19.911L486.509,206.6l15.366,29Zm2.164,34.212L427.86,305.442l-18.4-53.333,55.295-7.743Zm-70.877-30.578-21.642-62.815,52.049-4.662,24.672,59.655Zm-17.313,7.032L330.8,239.861,326.467,215.6l48.694-5.294Zm-96.2-40.3L290.975,193.8l76.071-6.8,6.709,19.279ZM287.62,179.97,281.777,161.8l81.265,2.765,3.03,8.375Zm4.112,89.837L237.087,223.98l-2.272-25.126,44.69-4.03ZM232.65,184.868l-3.9-18.015c15.474-1.738,32.9-3.714,41.444-4.662l6.06,18.8Zm-3.571,14.459,2.164,23.625L207,224.691l.866-23.388Zm4,27.654,57.784,48.435-85.918,5.926,1.84-52.543C214.579,228.325,228.538,227.3,233.083,226.982Zm58.108,56.889L243.8,405.63l-23.265-9.561,49.452-110.776ZM249.855,420.958l59.3,18.094-6.6,14.459-57.892-19.358Zm31.6.553L296.926,390.7l31.164,7.032-15.258,33.343Zm38.955,19.437,26.187,2.291-5.952,28.366L312.833,457.7Zm32.246,1.027,19.911-33.106c15.69,4.03,33.653,8.612,49.127,12.563L404.27,486.3,382.2,492.464l-36.358-18.252ZM440.3,485.2l9.739,25.521L409.031,523.2l-18.72-24.02Zm-29.649-.711,16.556-61.709c9.414,2.37,17.638,4.5,23.481,6l14.067,40.612Zm46.314-94.578,64.06,11.931L504.472,417.8l-35.384,7.348ZM527.2,403.022l60.489,11.3L520.27,439.368,509.558,420.01Zm44.582-.4,9.2-24.731,21.317,5.215-10.28,23.309Zm32.03,23.072,54.1,35.793-4,5.61c-27.377-3.872-51.4-7.19-64.276-9.007Zm31.164,14.933,42.2-51.358,29.217,3.872L660.51,457.62Zm77.478-46.775,9.306,1.264-18.179,78.934c-14.608-2.054-29.541-4.188-43.825-6.163Zm3.246,53.176,47.4,8.3-5.735,26.311c-14.284-1.975-30.839-4.346-48.045-6.716Zm7.142,38.321,32.138,4.5-14.284,43.457-26.512-3.951Zm37.873,5.294,30.082,4.188L779.648,539l-33.22-4.9Zm2.272-8.217,5.735-26.469,31.381,1.817-7.25,28.84C785.816,485.59,775.428,484.168,762.984,482.43Zm6.6-30.657,3.9-17.7,31.814,3.24-4.112,16.356Zm4.761-21.887,5.843-27.1,32.571,4.267-6.6,26.074Zm-10.388,21.254-47.287-8.217,10.821-47.012,47.179,6.163ZM664.73,373.392l57.784-25.047,42.743,38.242Zm62.761-27.259,75.1-32.632,16.772,14.933-75.205,32.474Zm-7.358-6.558-19.8-17.7,63.3-43.062,31.6,28.207Zm45.772-91.734L720.89,243.5c1.407-6.242,2.705-12.01,3.354-15.012l44.474,6.558Zm-.866,4.188-3.787,17.3-44.69-6.163c.866-3.793,2.164-9.64,3.463-15.565Zm-54.213,10.43-33.437-4.583,14.933-34.054,26.295,3.872ZM662.457,246.1l-47.179-34.845,36.9-23.151L682.8,199.565ZM602.618,208.1l-20.235-12.563,11.145-28.761,68.821-6.163a26.933,26.933,0,0,0,4.22,7.427Zm-26.511-53.887-9.089-42.746,39.064-4.425,9.2,43.694Zm-31.813,90.074-24.78,13.037-28.892-54.677,19.8-19.6C517.024,199.96,529.252,227.614,544.293,244.286Zm-77.911-24.731-16.448-39.9,57.351-5.136c.325,1.027.757,2.133,1.19,3.319Zm-9.09-54.756-18.5,1.659L407.3,129.56l50.1-5.689Zm-24.78,2.212-48.045,4.267,19.045-38.242Zm-57.243-1.817L349.516,92.582l54.97,14.143Zm-13.634-4.9-44.69-1.5-11.9-49.067,37.765-2.607Zm-50.642-1.738-30.515-1.027-14.392-45.116,33.112-2.291Zm-42.093-.474-41.12,4.583-3.9-18.015,39.5-3.872Zm-41.985,27.338L206.9,187.239l-2.705-17.62c4.437-.474,11.254-1.264,18.828-2.133ZM204.624,289.876l59.082-4.109-30.082,67.319-30.948-9.245Zm27.269,67.24-16.772,37.61-14.067-1.659,1.623-44.642Zm-18.612,41.64L199.754,429.1l1.082-31.842C204.948,397.728,210.034,398.36,213.281,398.755Zm5.41,1.422,23.481,9.64-24.888,64-18.937-6.637.866-23.309Zm24.455,38.084,57.567,19.279L282.751,496.81l-54.862-19.279Zm67.739,23.546L375.7,494.282l-55.836,15.565-26.728-9.4Zm7.25,62.973L369.318,542.8l-13.31,18.173-45.448-7.19ZM334.15,514.9l50.75-14.143,18.828,24.1-22.183,6.716Zm117.515-.079,7.466,19.6-39.6,10.588-31.056-10.983Zm-5.952-31.131,21.75-6.084,17.205,49.857-20.235,5.373Zm24.888-54.44,33.978-7.032,32.571,58.706L492.028,491.2Zm51.832,13.985,63.952-23.783L552.3,497.126Zm63.627,22.914,54.754,7.664-10.5,43.22-62.545-9.244Zm53.564,60.84L701.3,536.08l-4.761,24.573L636.92,538.134Zm1.948-8.3,10.5-43.3,59.515,8.375-8.657,44.01Zm71.094,19.042,64.925,9.561-6.384,25.442-63.627-9.166ZM784.95,595.26l27.81,2.607L804.1,630.183l-27.377-2.528Zm1.082-4.109L798.8,540.425l28.459,3.556-13.31,49.778Zm14.825-59.022,8.657-34.529c8.981,1.343,23.806,3.634,41.336,6.242l-10.28,33.185Zm10.821-42.746,10.713-42.667,68.713,7.032-9.09,46.3Zm8.549-95.605-46.314-6.084-26.187-23.388,75.205-32.474,11.145,9.956Zm24.563-48.04,47.72,8.454c-2.705,9.8-9.522,35.161-12.877,47.407l-48.045-6.321ZM837,331.042l-56.485-50.489,67.523,9.245Zm-64.493-60.129,11.362-51.674,80.616,8.533L850.092,281.58ZM815.79,214.1l6.6-34.529,53.023,7.269-8.765,32.632Zm3.9-49.225-21.75-3,6.925-28.6,21.966,1.738Zm-2.922,13.906c-1.84,9.64-5.086,26.785-6.6,34.687l-24.347-2.607,7.791-35.319Zm-30.19-18.41-41.552-5.689c0-.632.108-1.185.108-1.817a24.6,24.6,0,0,0-3.463-12.247L780.838,123.4l10.713,16.83Zm-4.437,13.669-12.444,56.81-75.53-11.062,16.123-36.741c12.444-1.58,23.049-7.19,29.108-14.854Zm-79.1-4.583c-12.552,0-22.832-7.427-22.832-16.672,0-9.165,10.172-16.672,22.832-16.672,12.552,0,22.832,7.427,22.832,16.672S715.588,169.461,703.036,169.461ZM690.484,182.1l-5.952,13.432-27.7-10.351L673.6,174.676A47.856,47.856,0,0,0,690.484,182.1Zm-28.459-35.556-40.9,3.635-9.306-43.773,43.717-4.978,19.261,28.761C668.409,134.458,663.864,140.147,662.025,146.547ZM557.6,104.039l-2.922-16.751,83.538-11.536,11.9,17.778Zm-1.948,8.77,4.437,20.938-33.328,2.924-3.138-20.227Zm-31.164,46.064-61.355,5.452.108-41.087L518,117Zm-59.407-44.326,19.694-51.516,24.239,6.716-13.959,41.4Zm-6.276.711-49.235,5.61,34.519-69.057,35.276,9.719Zm-52.373-12.484-28.243-7.269,9.955-26,30.3,9.165Zm-33.653-8.691-25-6.479L335.665,53.471l47.179,14.38Zm-33,4.741L261,104.355,257.43,85.787l73.8-10.746Zm-77.8,37.847-39.064,3.793-5.41-24.652,37.008-2.607ZM218.15,145.2l4,18.094-18.5,2.054-2.813-18.489Zm-18.071-2.449-3.9-25.442,15.582-1.106,5.41,24.81Zm-3.9,59.5-.866,23.151c-9.2.632-27.593,1.817-35.06,2.291l1.19-22.361ZM148.571,339.575l-.974,18.963c-6.493-.158-21.967-.553-28.459-.79l1.19-19.674Zm-26.078-9.719,28.459-33.58-1.84,34.924Zm24.888,32.869-1.19,22.519c-9.414-1.343-19.153-2.765-28.459-4.109l1.19-19.2Zm-1.623,26.785L141,417.719l-30.082-5.689,6.06-26.627Zm-1.623,44.01,16.772,3.081-1.731,16.672-17.422-6.084Zm.757-4.188,6.6-39.032,14.067,2.054-4.112,40.06Zm26.187-36.188,18.287,2.607-2.381,67.319L164.8,455.249Zm-19.153-7.032,1.19-23.151c7.466.316,27.485,1.185,37.332,1.58l-.974,26.943C181.9,390.38,167.724,388.326,151.926,386.113Zm1.407-27.338.974-18.884,36.9,1.9-.649,18.489Zm1.515-27.259,2.164-41.165,36.142-1.9-1.623,44.958Zm2.381-45.432.866-16.514,35.709.711-.541,13.906Zm1.3-24.968,1.515-29.235,35.06-2.291-1.082,32.237Zm-54.97-50.568,52.265-4.662-1.19,22.045-53.455-.4Zm50.858,21.491L152.9,260.958,96.739,259.93l3.9-28.207Zm-2.056,37.373-.974,18.252-18.4,21.649-38.2-35.319.757-5.768Zm-22.508,43.773L116,329.462l-28.567-1.5L94.034,280Zm-15.258,24.652L112,380.345c-12.552-1.817-23.806-3.4-31.164-4.5l5.41-39.506Zm-36.9-79.882-23.157-2.37,11.47-48.119L84.3,209.994Zm2.489,122.153,31.164,4.5-11.037,48.04-26.078-9.165Zm29.866,36.03,30.3,5.768-3.9,23.388-30.623-10.746Zm29.108,45.669,62.112,21.886-2.813,7.19L112.213,505.9Zm67.414,23.7,30.515,10.746-13.418,33.5L190.016,527.7Zm41.011,14.459,26.295,9.245-19.261,58.706L221.5,565.393Zm45.664,75.141-2.813,10.746-76.612-1.58,5.952-14.775Zm-32.9-6.8,18.828-57.284,28.243,9.956-13.093,49.936Zm49.127-10.351,81.59,12.879-2.922,17.067-86.026-1.817Zm52.373,3.951,12.66-17.225,28.351,9.956L392.8,566.815Zm35.168,7.98,11.146-13.353,36.358,12.8-4.761,19.595-45.881-.948ZM515.4,567.922c12.552,0,22.832,7.427,22.832,16.672,0,9.165-10.172,16.672-22.832,16.672-12.552,0-22.832-7.427-22.832-16.672C492.677,575.428,502.849,567.922,515.4,567.922Zm11.47-12.8a54.233,54.233,0,0,0-11.47-1.185H513.67L493.326,495.23l45.881-10.43,10.28,18.568ZM564.2,515.852l64.06,9.482-.974,4.109-77.8,37.294a38.861,38.861,0,0,0-5.627-4.662Zm61.679,19.279-12.877,53.333-55.836-6.953a24.188,24.188,0,0,0-4.653-11.141Zm15.366,65.344L636.92,614.46l-51.291-5.373,9.847-14.222Zm-11.795-31.842,6.384-26.153,59.84,22.6-2.381,12.4Zm132.989,38.4-61.9-7.743,6.168-31.605,63.3,9.086Zm29.433,69.452-26.4-3.792,10.28-40.929,27.269,2.528Zm37.765,5.452-26.511-3.793L819.9,615.171l24.78,4.03Zm16.123-66.924-24.672-3.951,17.53-65.659,23.157,2.924Zm71.959,37.294-37.549.79L879.2,635l30.407-24.494C911.447,620.07,915.884,642.746,917.723,652.307Zm-9.2-47.17L878.876,629l-4.437-79.171,21.642,2.687ZM926.6,515.378l-6.926,31.6L846.3,537.818l10.172-33.106C878.227,508.03,903.331,511.822,926.6,515.378ZM891.861,449.56l-68.5-6.953L831.7,409.58l66.332,8.691ZM914.477,406.1l-29.217-3.793,5.951-22.045,28.675,4.188Zm28.675,3.793-23.049-3,5.518-21.649,21.858,3.24Zm9.09-45.116-3.9,19.516L892.4,376.079l5.627-20.938ZM894.675,345.9l-47.72-8.454L859.29,291.3l47.937,6.558Zm29.217-54.2-62.437-8.533,10.388-39.032,61.679,9.086ZM955.6,25.184,949,58.922l-25.754-.316-2.381-31.842ZM922.917,67.061l24.347.316-13.093,66.608-19.694-.079Zm-8.873,71.032,19.37.079L925.3,179.417,909.067,177.2Zm-10.713,38.321-10.821-1.5-6.06-108.326,30.623.4ZM915.018,27,917.4,58.527l-31.381-.4-1.623-29.709ZM886.775,188.345l61.03,8.375-13.2,52.306-61.679-9.086Zm-5.843-15.012-55.511-7.585c2.164-9.165,5.843-24.81,7.142-30.262l46.53,3.635Zm-2.164-38.558-73.041-5.689,5.41-22.756,65.9-.474Zm-49.343-103.9,43.5-1.975,1.731,31.289-52.265-.316Zm-8.007,33.185,53.455.316,2.056,37.373-64.709.474ZM754,17.6,817.846,30l-6.925,28.6L746.969,44.858Zm56.053,45.2-15.149,62.894L746.32,49.046Zm-67.523.316,35.817,56.415-39.388,17.3a38.389,38.389,0,0,0-12.552-9.561ZM731.279,30.162l-23.265,92.287c-1.407-.079-2.705-.158-4.112-.237L689.185,35.3ZM677.823,36.72l14.716,86.44a3.335,3.335,0,0,1-.866.158L636.812,41.777ZM596.991,14.359,635.622,71.88l-38.09,5.294L571.021,19.653Zm-31.6,6.4c5.519,11.852,21.966,47.724,26.4,57.126L553.924,83.1l-10.063-58Zm-19.261,84.622-45.015,5.136,13.2-39.19,27.161,7.506Zm-5.411-31.289-54.1-15.012L499.386,38.7l36.9,9.8ZM507.61,19.574l24.672,5.61,3.246,18.568-34.086-9.007Zm-42.634-9.64,37.116,8.375-6.925,16.909L481.315,57.5l-35.276-9.8Zm-48.153-7.19,34.3,10.43-7.358,14.775-35.6-9.007ZM404.486,26.922l35.276,8.928-19.37,38.874L389.77,65.4Zm-51.4-12.958,45.989,11.615L384.359,63.821,333.717,48.493l-4.328-12.168A182.547,182.547,0,0,0,353.087,13.964ZM288.594,22.5l27.052-11.773L320.3,31.11a138.349,138.349,0,0,1-16.015,10.746ZM303.311,52.68A128.57,128.57,0,0,0,319.975,43.2l9.847,27.812L256.673,81.678l-2.813-14.854C273.229,63.426,290.217,58.843,303.311,52.68ZM248.232,67.614l7.142,37.136-76.612,5.373-3.787-36.267C200.512,72.908,225.725,71.011,248.232,67.614ZM213.389,29.451l3.355,33.422c-22.832,2.054-47.5,2.844-71.743,2.923l-1.407-42.509ZM169.131,73.935l3.9,36.5-44.258,3.082,2.272-39.269C143.594,74.33,156.362,74.251,169.131,73.935ZM114.269,20.6l17.746,1.58.541,17.225-20.993-1.9C112.213,33.717,113.512,25.579,114.269,20.6Zm18.5,23.072.757,22.044c-8.657-.079-17.313-.158-25.646-.4l3.138-23.7ZM17.746,11.989l90.9,8.059-2.705,16.909L14.5,28.582Zm-4.112,20.78L36.9,34.9,30.407,61.609c-9.2-.632-16.664-1.264-22.075-1.738Zm35.6,74.272L.325,100.483,6.709,68.246c9.847.869,26.511,2.212,47.287,3.4Zm6.925-8.77,29.325-6.637,3.571,20.7-34.194-4.583Zm-.325,18.252,45.989,6.163L90.138,196.562,78.019,194.9Zm-32.679,38.8,36.25-5.531,12.552,44.168L29,188.029ZM17.313,298.963l19.261-95.526,23.806,3.24L37.657,301.728Zm26.078,3.556,10.28-42.825,23.59,2.449L71.2,306.311ZM71.635,438.025l57.135,20.069L90.138,521.462l-34.411-2.133ZM54.1,527.7l90.355,5.61-1.515,19.516-94.791,5.452ZM142.512,557.1l-2.056,25.679-23.59-.474V558.6Zm-95.224,5.452,63.843-3.714v23.23l-67.414-1.343Zm34.086,94.578L29.649,652.07l7.791-39.664,48.911,4.9ZM38.306,608.218l2.705-13.511,48.153,1.027L87,613.2Zm66.332,51.2-17.53-1.738,4.978-39.743,18.071,1.817Zm6.06-43.852-18.179-1.817,2.272-17.857,18.612.4ZM136.452,662.5l-20.343-1.975,5.519-39.98,18.72.79Zm-14.284-46.143,2.813-19.911,75.1,1.58,2.164,21.649Zm20.019,46.7,4-41.482,56.485,2.37,4.545,45.511Zm59.732-79.013-49.885-1.027,1.948-25.126L208.3,568Zm-20.668-25.521,6.06-22.6,33.112,2.054-10.388,25.916Zm30.407,39.743,78.56,1.659,3.355,14.775-79.75,4.978Zm2.489,25.521,80.291-4.978,4.869,21.412-82.888,6.558Zm6.168,61.077-3.03-29.63,83.862-6.637,5.843,25.442Zm87.325-59.417L301.9,600.08l101.5,2.133c-2.164,6.4-5.843,16.2-10.929,27.97Zm116.109,53.65L385.766,668.5c2.381-4.188,4.653-8.3,6.709-12.4l39.929,6.874ZM396.479,648.2A375.147,375.147,0,0,0,415.2,602.45l23.806.474L462.378,632,438.14,655.309Zm80.616,13.827-32.9-5.61,22.508-21.65,20.776,6.242Zm12.444-24.968-19.153-5.768,21.966-21.1a45.663,45.663,0,0,0,8.981,3.239Zm11.9.79,11.254-22.6c.866.079,1.731.079,2.705.079a56.1,56.1,0,0,0,13.31-1.58l13.634,20.227Zm14.608,34.529,4.87-32.158,24.022-2.291,16.989,25.284ZM562.8,632.633l-17.746-26.39c5.952-4.346,10.172-9.956,11.687-16.277l32.9,4.109Zm33.545,49.857-10.063-14.933,33.545-7.032,5.41,15.329ZM676.2,664.4l-45.448,10.272-5.411-15.249,54-11.3Zm4.977-25.363-99.985,20.859-15.149-22.519,16.88-24.336L684.207,623.7Zm1.948,49.225,8.008-41.166,28.134,2.845-6.6,32.079Zm62.22-13.274-26.511,5.61,6.276-30.262,25.862,2.607Z" transform="translate(0 0.1)" fill="#50bfa0"/>
</svg>
